<?xml version="1.0" standalone="no"?>
<!DOCTYPE svg PUBLIC "-//W3C//DTD SVG 20010904//EN"
 "http://www.w3.org/TR/2001/REC-SVG-20010904/DTD/svg10.dtd">
<svg version="1.0" xmlns="http://www.w3.org/2000/svg"
 width="512.000000pt" height="512.000000pt" viewBox="0 0 512.000000 512.000000"
 preserveAspectRatio="xMidYMid meet">
<metadata>
Created by potrace 1.11, written by Peter Selinger 2001-2013
</metadata>
<g transform="translate(0.000000,512.000000) scale(0.100000,-0.100000)"
fill="#000000" stroke="none">
<path d="M1572 4743 c-93 -19 -159 -57 -240 -140 -102 -105 -169 -252 -189
-418 -12 -94 -5 -253 17 -355 45 -220 142 -410 282 -552 108 -109 188 -159
306 -189 288 -73 540 101 632 436 29 104 36 324 14 435 -54 280 -177 503 -361
655 -141 116 -301 161 -461 128z"/>
<path d="M3384 4749 c-102 -13 -182 -47 -271 -113 -163 -123 -296 -327 -359
-555 -33 -116 -39 -172 -38 -331 1 -234 59 -393 193 -529 123 -124 243 -166
406 -143 139 20 234 72 355 193 224 224 343 575 307 909 -24 229 -161 451
-327 529 -81 38 -174 52 -266 40z"/>
<path d="M535 3355 c-156 -35 -280 -176 -331 -375 -18 -71 -25 -225 -13 -299
16 -97 21 -119 49 -203 107 -319 353 -577 608 -638 72 -17 189 -15 254 4 162
47 282 203 323 421 6 34 7 217 1 255 -22 136 -85 310 -153 424 -20 33 -40 63
-43 66 -3 3 -19 23 -35 45 -44 62 -153 163 -226 211 -137 89 -294 122 -434 89z"/>
<path d="M4400 3363 c-271 -36 -540 -302 -656 -648 -102 -307 -65 -584 103
-766 158 -170 457 -162 679 18 265 215 421 546 408 867 -4 109 -24 190 -69
281 -93 189 -255 276 -465 248z"/>
<path d="M2489 2466 c-2 -2 -29 -7 -59 -10 -167 -20 -410 -132 -634 -293 -50
-36 -93 -68 -96 -72 -3 -3 -32 -28 -65 -56 -350 -294 -654 -773 -708 -1116
-23 -148 -12 -252 36 -342 74 -139 224 -206 466 -205 154 0 279 26 561 118
123 39 231 73 239 76 9 2 41 10 71 18 91 26 139 31 270 30 152 -1 237 -22 550
-133 108 -39 234 -77 283 -87 12 -2 47 -9 77 -15 54 -12 274 -15 308 -5 9 3
36 8 59 11 57 8 147 40 199 70 153 90 196 294 123 580 -12 44 -30 99 -40 122
-10 24 -19 45 -19 48 0 2 -15 35 -33 72 -272 551 -830 1047 -1312 1165 -72 18
-264 35 -276 24z"/>
</g>
</svg>
